<svg id="Capa_1" enable-background="new 0 0 512 512" height="512" viewBox="0 0 512 512" width="512" xmlns="http://www.w3.org/2000/svg" xmlns:xlink="http://www.w3.org/1999/xlink"><linearGradient id="SVGID_1_" gradientUnits="userSpaceOnUse" x1="0" x2="512" y1="256" y2="256"><stop offset="0" stop-color="#00f2fe"/><stop offset=".0208" stop-color="#03effe"/><stop offset=".2931" stop-color="#24d2fe"/><stop offset=".5538" stop-color="#3cbdfe"/><stop offset=".7956" stop-color="#4ab0fe"/><stop offset="1" stop-color="#4facfe"/></linearGradient><path d="m512 256c0 11.046-8.954 20-20 20h-20c-.646 0-1.284-.037-1.914-.097-1.047 10.957-10.76 19.01-21.727 18.014-11-1.006-19.102-10.738-18.096-21.738.489-5.343.737-10.786.737-16.179 0-96.495-78.505-175-175-175s-175 78.505-175 175 78.505 175 175 175c61.276 0 117.049-31.206 149.19-83.476 2.779-4.519 7.238-7.749 12.398-8.979 5.161-1.229 10.597-.361 15.115 2.418l34.901 21.463c9.409 5.786 12.346 18.104 6.56 27.513-5.786 9.411-18.107 12.343-27.513 6.56l-18.661-11.476c-13.378 17.794-29.479 33.459-47.616 46.352.369.518.721 1.053 1.045 1.615l10.01 17.315c5.528 9.563 2.258 21.796-7.305 27.325-3.151 1.822-6.595 2.688-9.991 2.688-6.908 0-13.627-3.583-17.333-9.994l-10.01-17.315c-.32-.553-.603-1.117-.864-1.686-22.055 10.148-45.768 16.496-70.025 18.748.061.635.097 1.277.097 1.928v20c0 11.046-8.954 20-20 20s-20-8.954-20-20v-20c0-.647.037-1.285.097-1.916-26.455-2.413-51.9-9.624-75.318-21.212-.269.542-.555 1.078-.878 1.604l-10.476 17.037c-3.776 6.142-10.339 9.527-17.056 9.527-3.574 0-7.189-.957-10.457-2.966-9.409-5.786-12.347-18.104-6.562-27.513l10.476-17.037c.335-.545.697-1.064 1.074-1.565-8.028-6.053-15.694-12.697-22.929-19.932-8.661-8.661-16.484-17.936-23.445-27.718-.507.36-1.031.705-1.58 1.022l-17.32 10.001c-3.15 1.819-6.589 2.684-9.982 2.684-6.912 0-13.634-3.587-17.339-10.002-5.523-9.566-2.246-21.798 7.319-27.321l17.32-10.001c.533-.308 1.078-.579 1.626-.832-10.094-21.922-16.424-45.507-18.654-69.956-.629.06-1.267.097-1.914.097h-20c-11.046 0-20-8.954-20-20s8.954-20 20-20h20c.647 0 1.285.037 1.916.097 2.393-26.234 9.506-51.474 20.925-74.73-.543-.268-1.082-.552-1.608-.874l-17.068-10.424c-9.427-5.757-12.402-18.066-6.645-27.493 5.757-9.428 18.066-12.402 27.492-6.645l17.068 10.424c.545.333 1.063.692 1.563 1.067 6.158-8.218 12.937-16.058 20.328-23.45 8.662-8.662 17.937-16.485 27.72-23.447-.36-.508-.707-1.029-1.024-1.579l-10.001-17.32c-5.523-9.565-2.246-21.797 7.319-27.321 9.566-5.523 21.798-2.247 27.321 7.319l10.001 17.32c.308.533.579 1.077.833 1.626 21.922-10.094 45.507-16.425 69.957-18.654-.06-.631-.097-1.269-.097-1.916v-20c0-11.046 8.954-20 20-20s20 8.954 20 20v20c0 .647-.037 1.285-.097 1.916 26.313 2.4 51.625 9.548 74.939 21.027.268-.543.553-1.081.875-1.607l10.442-17.058c5.768-9.42 18.081-12.382 27.5-6.615 9.421 5.767 12.382 18.079 6.615 27.5l-10.442 17.058c-.334.545-.697 1.06-1.072 1.562 8.151 6.121 15.931 12.853 23.268 20.19 8.664 8.664 16.49 17.943 23.453 27.729.508-.36 1.031-.705 1.58-1.022l17.32-10c9.565-5.523 21.798-2.246 27.32 7.32 5.523 9.566 2.245 21.797-7.32 27.32l-17.32 10c-.534.308-1.078.579-1.626.832 10.091 21.918 16.419 45.499 18.649 69.944.631-.06 1.269-.097 1.916-.097h20c11.046.001 20 8.955 20 20.001zm-365-75c-11.046 0-20 8.954-20 20v88c0 30.327 24.673 55 55 55s55-24.673 55-55v-88c0-11.046-8.954-20-20-20s-20 8.954-20 20v88c0 8.271-6.729 15-15 15s-15-6.729-15-15v-88c0-11.046-8.954-20-20-20zm139 0c-11.046 0-20 8.954-20 20v57c0 14.832 7.632 32.525 23.331 54.091 10.393 14.276 20.719 25.209 21.153 25.667 3.746 3.953 8.943 6.207 14.389 6.241h.127c5.4 0 10.574-2.185 14.341-6.059.445-.458 11.029-11.384 21.685-25.656 16.132-21.605 23.974-39.362 23.974-54.284v-57c0-11.046-8.954-20-20-20s-20 8.954-20 20v57c0 .901-.442 9.396-15.78 30.025-1.353 1.818-2.71 3.581-4.042 5.263-10.581-13.854-19.178-28.389-19.178-35.288v-57c0-11.046-8.954-20-20-20z" fill="url(#SVGID_1_)"/></svg>